<svg viewBox="0 0 24 24" width="24" height="24" fill="none" xmlns="http://www.w3.org/2000/svg">
  <path d="M22 6.058a11.485 11.485 0 01-2.89 2.866 11.462 11.462 0 01-1.67 5.553 11.516 11.516 0 01-4.18 4.035A11.567 11.567 0 012 18.564v-.001a11.503 11.503 0 006.308-1.987 11.513 11.513 0 01-4.34-5.548A11.466 11.466 0 013.682 4a11.509 11.509 0 003.577 3.496 11.556 11.556 0 004.727 1.654 3.58 3.58 0 01.369-2.466 3.6 3.6 0 011.891-1.632 3.616 3.616 0 012.502-.012 3.6 3.6 0 011.907 1.614A11.626 11.626 0 0022 6.059" fill="#988BF9"/>
</svg>
